# xmcd
#
# Track frame offsets:
#	150
#	18982
#	33661
#	49339
#	66261
#	88761
#	104288
#	124494
#	138074
#	152537
#	166517
#	183531
#
# Disc length: 2697 seconds
#
# Revision: 1
# Processed by: cddbd v1.5.1PL0 Copyright (c) Steve Scherf et al.
# Submitted via: audiograbber 1.80
#
DISCID=9c0a870c
DTITLE=Old Reliable - The Burning Truth
DYEAR=1900
DGENRE=
TTITLE0=the burning truth
TTITLE1=face the day
TTITLE2=before u c me explode
TTITLE3=autumn leaf
TTITLE4=for the unforgiven
TTITLE5=thoroughfare
TTITLE6=standing on the earth tonight
TTITLE7=out on the line
TTITLE8=trembling hand
TTITLE9=fool for her
TTITLE10=bride
TTITLE11=dying 4 love
EXTD=
EXTT0=
EXTT1=
EXTT2=
EXTT3=
EXTT4=
EXTT5=
EXTT6=
EXTT7=
EXTT8=
EXTT9=
EXTT10=
EXTT11=
PLAYORDER=
